<?xml version="1.0" encoding="utf-8"?>
<!-- Generator: Adobe Illustrator 22.0.1, SVG Export Plug-In . SVG Version: 6.00 Build 0)  -->
<svg version="1.1" id="Layer_1" xmlns="http://www.w3.org/2000/svg" xmlns:xlink="http://www.w3.org/1999/xlink" x="0px" y="0px"
	 viewBox="0 0 2850 1800" enable-background="new 0 0 2850 1800" xml:space="preserve">
<g>
	<linearGradient id="SVGID_1_" gradientUnits="userSpaceOnUse" x1="1425" y1="4.6407" x2="1425" y2="1804.6407">
		<stop  offset="0" style="stop-color:#7C4A74"/>
		<stop  offset="1" style="stop-color:#FA798D"/>
	</linearGradient>
	<rect y="0" fill="url(#SVGID_1_)" width="2850" height="1800"/>
	<circle opacity="0.08" fill="#E5EDD4" cx="1409.805" cy="990.666" r="597.051"/>
	<circle opacity="0.08" fill="#E5EDD4" cx="1409.805" cy="990.666" r="429.67"/>
	<circle fill="#FFFFFF" cx="1409.805" cy="990.666" r="316.806"/>
	<g>
		<g>
			<g>
				<path fill="#FFFFFF" d="M1707.48,264.501c0.588-1.213,0.61-2.531-0.232-3.621c-0.65-0.842-1.652-1.314-2.719-1.312
					c-0.903,0.002-1.843,0.357-2.477,1.008c-1.051,1.079-1.134,2.629-0.467,3.931c0.733,1.433,2.861,1.965,4.201,1.101
					c1.462-0.943,1.885-2.668,1.101-4.201c-0.011-0.021-0.021-0.042-0.032-0.063c0.103,0.244,0.206,0.489,0.309,0.733
					c-0.004-0.019-0.007-0.037-0.011-0.056c0,0.544,0,1.088,0,1.632c0.002-0.016,0.005-0.033,0.007-0.049
					c-0.103,0.244-0.206,0.489-0.309,0.733c0.008-0.014,0.016-0.028,0.023-0.042c-0.16,0.207-0.32,0.414-0.48,0.621
					c0.012-0.012,0.025-0.024,0.037-0.036c-0.207,0.16-0.414,0.32-0.621,0.48c0.016-0.01,0.032-0.019,0.048-0.029
					c-0.244,0.103-0.489,0.206-0.733,0.31c0.038-0.018,0.078-0.03,0.12-0.036c-0.272,0.037-0.544,0.073-0.816,0.11
					c0.071-0.008,0.131-0.009,0.202-0.002c-0.272-0.037-0.544-0.073-0.816-0.11c0.042,0.006,0.082,0.017,0.12,0.034
					c-0.244-0.103-0.489-0.206-0.733-0.31c0.016,0.009,0.032,0.018,0.049,0.028c-0.207-0.16-0.414-0.32-0.621-0.48
					c0.013,0.012,0.025,0.023,0.038,0.035c-0.16-0.207-0.32-0.414-0.48-0.621c0.008,0.014,0.016,0.028,0.024,0.042
					c-0.103-0.244-0.206-0.489-0.309-0.733c0.003,0.016,0.006,0.033,0.008,0.049c0-0.544,0-1.088,0-1.632
					c-0.003,0.019-0.007,0.038-0.01,0.056c0.103-0.244,0.206-0.489,0.309-0.733c-0.01,0.021-0.021,0.042-0.031,0.064
					c-0.365,0.752-0.538,1.536-0.31,2.366c0.196,0.712,0.747,1.484,1.411,1.835C1704.656,266.329,1706.733,266.044,1707.48,264.501
					L1707.48,264.501z"/>
			</g>
		</g>
		<g>
			<g>
				<path fill="#FFFFFF" d="M1717.645,179.115c-0.275,0.275-0.551,0.55-0.826,0.826c-1.137,1.137-1.222,3.22,0,4.342
					c1.226,1.125,3.128,1.214,4.342,0c0.275-0.275,0.55-0.55,0.826-0.826c1.137-1.137,1.222-3.22,0-4.342
					C1720.761,177.989,1718.858,177.901,1717.645,179.115L1717.645,179.115z"/>
			</g>
		</g>
		<g>
			<g>
				<path fill="#FFFFFF" d="M1757.491,137.004c-0.275-0.275-0.55-0.55-0.826-0.826c-1.137-1.137-3.22-1.222-4.342,0
					c-1.125,1.226-1.214,3.128,0,4.342c0.275,0.275,0.55,0.55,0.826,0.826c1.137,1.137,3.22,1.222,4.342,0
					C1758.617,140.121,1758.705,138.218,1757.491,137.004L1757.491,137.004z"/>
			</g>
		</g>
		<g>
			<g>
				<path fill="#FFFFFF" d="M1811.235,167.249c0-0.275,0-0.55,0-0.826c0-1.606-1.412-3.144-3.07-3.07
					c-1.663,0.075-3.07,1.349-3.07,3.07c0,0.275,0,0.55,0,0.826c0,1.606,1.412,3.144,3.07,3.07
					C1809.828,170.244,1811.235,168.97,1811.235,167.249L1811.235,167.249z"/>
			</g>
		</g>
		<g>
			<g>
				<path fill="#FFFFFF" d="M1760.824,334.04c-0.028-0.825-0.056-1.649-0.084-2.474c-0.055-1.603-1.373-3.146-3.07-3.07
					c-1.617,0.072-3.129,1.351-3.07,3.07c0.028,0.825,0.056,1.649,0.084,2.474c0.055,1.603,1.373,3.146,3.07,3.07
					C1759.37,337.038,1760.882,335.759,1760.824,334.04L1760.824,334.04z"/>
			</g>
		</g>
		<g>
			<g>
				<path fill="#FFFFFF" d="M1726.941,381.409c-0.275-0.275-0.55-0.55-0.826-0.826c-1.137-1.137-3.22-1.222-4.342,0
					c-1.125,1.226-1.214,3.128,0,4.342c0.275,0.275,0.55,0.55,0.826,0.826c1.137,1.137,3.22,1.222,4.342,0
					C1728.066,384.525,1728.155,382.622,1726.941,381.409L1726.941,381.409z"/>
			</g>
		</g>
		<g>
			<g>
				<path fill="#FFFFFF" d="M1647.155,280.601c-0.17,0-0.341,0-0.511,0c-3.951,0-3.958,6.14,0,6.14c0.17,0,0.341,0,0.511,0
					C1651.106,286.741,1651.113,280.601,1647.155,280.601c-0.17,0-0.341,0-0.511,0c-3.951,0-3.958,6.14,0,6.14
					c0.17,0,0.341,0,0.511,0C1651.106,286.741,1651.113,280.601,1647.155,280.601L1647.155,280.601z"/>
			</g>
		</g>
		<g>
			<g>
				<path fill="#FFFFFF" d="M1576.146,280.601c-0.275,0-0.55,0-0.826,0c-1.606,0-3.145,1.412-3.07,3.07
					c0.074,1.663,1.349,3.07,3.07,3.07c0.275,0,0.55,0,0.826,0c1.606,0,3.144-1.412,3.07-3.07
					C1579.141,282.008,1577.867,280.601,1576.146,280.601L1576.146,280.601z"/>
			</g>
		</g>
		<g>
			<g>
				<path fill="#FFFFFF" d="M1575.913,355.506c0-0.17,0-0.341,0-0.511c0-3.951-6.14-3.958-6.14,0c0,0.17,0,0.341,0,0.511
					C1569.773,359.457,1575.913,359.464,1575.913,355.506c0-0.17,0-0.341,0-0.511c0-3.951-6.14-3.958-6.14,0c0,0.17,0,0.341,0,0.511
					C1569.773,359.457,1575.913,359.464,1575.913,355.506L1575.913,355.506z"/>
			</g>
		</g>
		<g>
			<g>
				<path fill="#FFFFFF" d="M1475.931,313.09c0.275-0.275,0.55-0.55,0.826-0.826c1.137-1.137,1.222-3.22,0-4.342
					c-1.226-1.125-3.128-1.214-4.342,0c-0.275,0.275-0.551,0.55-0.826,0.826c-1.137,1.137-1.222,3.22,0,4.342
					C1472.815,314.215,1474.718,314.303,1475.931,313.09L1475.931,313.09z"/>
			</g>
		</g>
		<g>
			<g>
				<path fill="#FFFFFF" d="M1421.742,255.365c3.951,0,3.958-6.14,0-6.14C1417.791,249.225,1417.784,255.365,1421.742,255.365
					L1421.742,255.365z"/>
			</g>
		</g>
		<g>
			<g>
				<path fill="#FFFFFF" d="M1548.592,186.546c-0.275-0.275-0.551-0.55-0.826-0.826c-1.137-1.137-3.22-1.222-4.342,0
					c-1.125,1.226-1.214,3.128,0,4.342c0.275,0.275,0.551,0.55,0.826,0.826c1.137,1.137,3.22,1.222,4.342,0
					C1549.717,189.662,1549.805,187.759,1548.592,186.546L1548.592,186.546z"/>
			</g>
		</g>
		<g>
			<g>
				<path fill="#FFFFFF" d="M1396.971,378.032c-0.275,0-0.55,0-0.826,0c-1.606,0-3.144,1.412-3.07,3.07
					c0.074,1.663,1.349,3.07,3.07,3.07c0.275,0,0.551,0,0.826,0c1.606,0,3.145-1.412,3.07-3.07
					C1399.967,379.439,1398.692,378.032,1396.971,378.032L1396.971,378.032z"/>
			</g>
		</g>
		<g>
			<g>
				<path fill="#FFFFFF" d="M1527.43,463.904c-0.275,0-0.551,0-0.826,0c-1.606,0-3.145,1.412-3.07,3.07
					c0.074,1.663,1.349,3.07,3.07,3.07c0.275,0,0.55,0,0.826,0c1.606,0,3.144-1.412,3.07-3.07
					C1530.426,465.311,1529.151,463.904,1527.43,463.904L1527.43,463.904z"/>
			</g>
		</g>
		<g>
			<g>
				<path fill="#FFFFFF" d="M1929.555,523.277c-0.539,0-1.078,0-1.617,0c-1.606,0-3.144,1.412-3.07,3.07
					c0.075,1.663,1.349,3.07,3.07,3.07c0.539,0,1.078,0,1.617,0c1.606,0,3.145-1.412,3.07-3.07
					C1932.551,524.684,1931.277,523.277,1929.555,523.277L1929.555,523.277z"/>
			</g>
		</g>
		<g>
			<g>
				<path fill="#FFFFFF" d="M2096.146,422.67c3.951,0,3.958-6.14,0-6.14C2092.195,416.529,2092.189,422.67,2096.146,422.67
					L2096.146,422.67z"/>
			</g>
		</g>
		<g>
			<g>
				<path fill="#FFFFFF" d="M2272.456,427.719c-0.533-0.058-1.065-0.117-1.598-0.175c-0.732-0.08-1.672,0.401-2.171,0.899
					c-0.532,0.533-0.934,1.406-0.899,2.171c0.036,0.794,0.296,1.618,0.899,2.171c0.636,0.584,1.316,0.805,2.171,0.899
					c0.533,0.058,1.065,0.117,1.598,0.175c0.732,0.08,1.672-0.401,2.171-0.899c0.532-0.533,0.934-1.406,0.899-2.171
					c-0.035-0.794-0.296-1.618-0.899-2.171C2273.991,428.034,2273.311,427.813,2272.456,427.719L2272.456,427.719z"/>
			</g>
		</g>
		<g>
			<g>
				<path fill="#FFFFFF" d="M1914.999,253.173c-0.297,0-0.593,0-0.89,0c-3.951,0-3.958,6.14,0,6.14c0.297,0,0.593,0,0.89,0
					C1918.95,259.314,1918.957,253.173,1914.999,253.173c-0.297,0-0.593,0-0.89,0c-3.951,0-3.958,6.14,0,6.14
					c0.297,0,0.593,0,0.89,0C1918.95,259.314,1918.957,253.173,1914.999,253.173L1914.999,253.173z"/>
			</g>
		</g>
		<g>
			<g>
				<path fill="#FFFFFF" d="M2039.538,227.295c-0.297,0-0.593,0-0.89,0c-3.951,0-3.958,6.14,0,6.14c0.297,0,0.593,0,0.89,0
					C2043.489,233.436,2043.495,227.295,2039.538,227.295c-0.297,0-0.593,0-0.89,0c-3.951,0-3.958,6.14,0,6.14
					c0.297,0,0.593,0,0.89,0C2043.489,233.436,2043.495,227.295,2039.538,227.295L2039.538,227.295z"/>
			</g>
		</g>
		<g>
			<g>
				<path fill="#FFFFFF" d="M1879.97,79.395c-0.539-0.539-1.078-1.078-1.617-1.617c-1.137-1.137-3.22-1.222-4.342,0
					c-1.125,1.226-1.214,3.128,0,4.342c0.539,0.539,1.078,1.078,1.617,1.617c1.137,1.137,3.22,1.222,4.342,0
					C1881.095,82.511,1881.184,80.608,1879.97,79.395L1879.97,79.395z"/>
			</g>
		</g>
		<g>
			<g>
				<path fill="#FFFFFF" d="M1939.26,71.697c3.951,0,3.958-6.14,0-6.14C1935.309,65.556,1935.302,71.697,1939.26,71.697
					L1939.26,71.697z"/>
			</g>
		</g>
		<g>
			<g>
				<path fill="#FFFFFF" d="M1816.338,92.723c3.951,0,3.958-6.14,0-6.14C1812.387,86.582,1812.381,92.723,1816.338,92.723
					L1816.338,92.723z"/>
			</g>
		</g>
		<g>
			<g>
				<path fill="#FFFFFF" d="M1853.538,7.001c3.951,0,3.958-6.14,0-6.14C1849.587,0.861,1849.581,7.001,1853.538,7.001
					L1853.538,7.001z"/>
			</g>
		</g>
		<g>
			<g>
				<path fill="#FFFFFF" d="M1929.555,31.591c-0.539,0-1.078,0-1.617,0c-1.606,0-3.144,1.412-3.07,3.07
					c0.075,1.663,1.349,3.07,3.07,3.07c0.539,0,1.078,0,1.617,0c1.606,0,3.145-1.412,3.07-3.07
					C1932.551,32.998,1931.277,31.591,1929.555,31.591L1929.555,31.591z"/>
			</g>
		</g>
		<g>
			<g>
				<path fill="#FFFFFF" d="M2022.81,37.343c-0.539,0.539-1.078,1.078-1.617,1.617c-1.137,1.137-1.222,3.22,0,4.342
					c1.226,1.125,3.128,1.214,4.342,0c0.539-0.539,1.078-1.078,1.617-1.617c1.137-1.137,1.222-3.22,0-4.342
					C2025.927,36.218,2024.024,36.129,2022.81,37.343L2022.81,37.343z"/>
			</g>
		</g>
		<g>
			<g>
				<path fill="#FFFFFF" d="M2060.399,94.505c0-0.539,0-1.078,0-1.617c0-1.606-1.412-3.144-3.07-3.07
					c-1.664,0.075-3.07,1.349-3.07,3.07c0,0.539,0,1.078,0,1.617c0,1.606,1.412,3.144,3.07,3.07
					C2058.992,97.5,2060.399,96.226,2060.399,94.505L2060.399,94.505z"/>
			</g>
		</g>
		<g>
			<g>
				<path fill="#FFFFFF" d="M2092.747,143.026c0-0.297,0-0.593,0-0.89c0-3.951-6.141-3.958-6.141,0c0,0.297,0,0.593,0,0.89
					C2086.606,146.977,2092.747,146.984,2092.747,143.026c0-0.297,0-0.593,0-0.89c0-3.951-6.141-3.958-6.141,0
					c0,0.297,0,0.593,0,0.89C2086.606,146.977,2092.747,146.984,2092.747,143.026L2092.747,143.026z"/>
			</g>
		</g>
		<g>
			<g>
				<path fill="#FFFFFF" d="M2189.955,8.948c-0.539,0-1.078,0-1.617,0c-1.606,0-3.145,1.412-3.07,3.07
					c0.075,1.663,1.349,3.07,3.07,3.07c0.539,0,1.078,0,1.617,0c1.606,0,3.144-1.412,3.07-3.07
					C2192.95,10.355,2191.676,8.948,2189.955,8.948L2189.955,8.948z"/>
			</g>
		</g>
		<g>
			<g>
				<path fill="#FFFFFF" d="M2265.972,5.384c3.951,0,3.958-6.14,0-6.14C2262.021-0.756,2262.014,5.384,2265.972,5.384
					L2265.972,5.384z"/>
			</g>
		</g>
		<g>
			<g>
				<path fill="#FFFFFF" d="M2265.972,120.548c-0.539,0-1.078,0-1.617,0c-1.606,0-3.144,1.412-3.07,3.07
					c0.074,1.663,1.349,3.07,3.07,3.07c0.539,0,1.078,0,1.617,0c1.606,0,3.145-1.412,3.07-3.07
					C2268.968,121.954,2267.693,120.548,2265.972,120.548L2265.972,120.548z"/>
			</g>
		</g>
		<g>
			<g>
				<path fill="#FFFFFF" d="M2490.789,17.035c-0.297,0-0.594,0-0.89,0c-3.951,0-3.958,6.14,0,6.14c0.297,0,0.594,0,0.89,0
					C2494.74,23.175,2494.746,17.035,2490.789,17.035c-0.297,0-0.594,0-0.89,0c-3.951,0-3.958,6.14,0,6.14c0.297,0,0.594,0,0.89,0
					C2494.74,23.175,2494.746,17.035,2490.789,17.035L2490.789,17.035z"/>
			</g>
		</g>
		<g>
			<g>
				<path fill="#FFFFFF" d="M2569.876,58.922c0-0.539,0-1.078,0-1.617c0-1.606-1.412-3.144-3.07-3.07
					c-1.663,0.075-3.07,1.349-3.07,3.07c0,0.539,0,1.078,0,1.617c0,1.606,1.412,3.144,3.07,3.07
					C2568.469,61.918,2569.876,60.643,2569.876,58.922L2569.876,58.922z"/>
			</g>
		</g>
		<g>
			<g>
				<path fill="#FFFFFF" d="M2642.773,351.549c-0.052,0.01-0.104,0.011-0.156,0.004c0.272,0.037,0.544,0.073,0.816,0.11
					c-0.023-0.005-0.046-0.011-0.069-0.016c0.245,0.103,0.489,0.206,0.733,0.309c-0.043-0.014-0.082-0.036-0.118-0.064
					c0.207,0.16,0.414,0.32,0.621,0.48c-0.036-0.028-0.067-0.061-0.093-0.099c0.16,0.207,0.32,0.414,0.48,0.621
					c-0.027-0.039-0.05-0.081-0.068-0.126c0.103,0.244,0.206,0.489,0.31,0.733c-0.026-0.075-0.043-0.143-0.055-0.222
					c0.037,0.272,0.073,0.544,0.11,0.816c-0.006-0.082-0.006-0.156,0-0.238c-0.036,0.272-0.073,0.544-0.11,0.816
					c0.012-0.08,0.028-0.15,0.053-0.227c-0.103,0.244-0.206,0.489-0.31,0.733c0.03-0.071,0.061-0.127,0.106-0.189
					c-0.16,0.207-0.32,0.414-0.48,0.621c0.029-0.035,0.062-0.066,0.1-0.092c-0.207,0.16-0.414,0.32-0.622,0.48
					c0.02-0.011,0.039-0.022,0.058-0.033c-0.244,0.103-0.489,0.206-0.733,0.31c0.042-0.019,0.087-0.03,0.133-0.034
					c-0.272,0.037-0.544,0.073-0.816,0.11c0.025,0,0.05,0.001,0.075,0.001c-0.272-0.037-0.544-0.073-0.816-0.11
					c0.027,0.005,0.054,0.009,0.081,0.014c0.833,0.145,1.612,0.132,2.366-0.309c0.637-0.373,1.244-1.103,1.411-1.835
					c0.34-1.492-0.452-3.483-2.145-3.777c-1.251-0.217-2.443-0.049-3.387,0.883c-0.696,0.687-1.111,1.699-1.108,2.677
					c0.003,0.891,0.239,1.699,0.785,2.406c0.654,0.846,1.732,1.497,2.846,1.385c0.834-0.084,1.558-0.286,2.171-0.899
					c0.532-0.533,0.934-1.406,0.899-2.171C2645.775,353.094,2644.484,351.376,2642.773,351.549L2642.773,351.549z"/>
			</g>
		</g>
		<g>
			<g>
				<path fill="#FFFFFF" d="M2480.837,478.617c-0.027-0.087-0.038-0.24-0.084-0.315c0.237,0.377,0.054,0.677,0.079,0.251
					c0.022-0.385-0.039,0.719-0.03,0.336c0.01-0.4,0.379-0.117-0.104,0.2c0.029-0.019,0.165-0.246,0.168-0.281
					c-0.004,0.06-0.456,0.566-0.167,0.246c0.335-0.372-0.479,0.287-0.174,0.132c0.31-0.158-0.777,0.265-0.213,0.081
					c1.524-0.497,2.672-2.148,2.145-3.777c-0.493-1.522-2.142-2.678-3.777-2.144c-2.833,0.925-4.673,3.961-3.762,6.903
					c0.474,1.532,2.164,2.666,3.777,2.144C2480.235,481.895,2481.346,480.26,2480.837,478.617L2480.837,478.617z"/>
			</g>
		</g>
		<g>
			<g>
				<path fill="#FFFFFF" d="M2596.799,573.397c-0.541-1.077-1.082-2.154-1.624-3.232c-0.722-1.438-2.868-1.961-4.2-1.101
					c-1.47,0.948-1.874,2.662-1.102,4.201c0.541,1.077,1.082,2.154,1.624,3.232c0.722,1.438,2.868,1.961,4.2,1.101
					C2597.167,576.649,2597.571,574.935,2596.799,573.397L2596.799,573.397z"/>
			</g>
		</g>
		<g>
			<g>
				<path fill="#FFFFFF" d="M2744.554,508.556c0-0.539,0-1.078,0-1.617c0-1.606-1.412-3.144-3.07-3.07
					c-1.664,0.075-3.07,1.349-3.07,3.07c0,0.539,0,1.078,0,1.617c0,1.606,1.412,3.144,3.07,3.07
					C2743.147,511.552,2744.554,510.277,2744.554,508.556L2744.554,508.556z"/>
			</g>
		</g>
		<g>
			<g>
				<path fill="#FFFFFF" d="M2746.171,658.973c0-0.539,0-1.078,0-1.617c0-1.606-1.412-3.144-3.07-3.07
					c-1.663,0.075-3.07,1.349-3.07,3.07c0,0.539,0,1.078,0,1.617c0,1.606,1.412,3.144,3.07,3.07
					C2744.765,661.969,2746.171,660.694,2746.171,658.973L2746.171,658.973z"/>
			</g>
		</g>
		<g>
			<g>
				<path fill="#FFFFFF" d="M2393.581,709.112c0-0.539,0-1.078,0-1.617c0-1.606-1.412-3.144-3.07-3.07
					c-1.663,0.074-3.07,1.349-3.07,3.07c0,0.539,0,1.078,0,1.617c0,1.606,1.412,3.144,3.07,3.07
					C2392.174,712.108,2393.581,710.833,2393.581,709.112L2393.581,709.112z"/>
			</g>
		</g>
		<g>
			<g>
				<path fill="#FFFFFF" d="M1905.13,730.138c0-0.539,0-1.078,0-1.617c0-1.606-1.412-3.144-3.07-3.07
					c-1.663,0.075-3.07,1.349-3.07,3.07c0,0.539,0,1.078,0,1.617c0,1.606,1.412,3.144,3.07,3.07
					C1903.723,733.134,1905.13,731.859,1905.13,730.138L1905.13,730.138z"/>
			</g>
		</g>
		<g>
			<g>
				<path fill="#FFFFFF" d="M1591.521,632.93c3.951,0,3.958-6.14,0-6.14C1587.57,626.79,1587.564,632.93,1591.521,632.93
					L1591.521,632.93z"/>
			</g>
		</g>
		<g>
			<g>
				<path fill="#FFFFFF" d="M1392.418,587.808c0-0.539,0-1.078,0-1.617c0-1.606-1.412-3.144-3.07-3.07
					c-1.663,0.074-3.07,1.349-3.07,3.07c0,0.539,0,1.078,0,1.617c0,1.606,1.412,3.144,3.07,3.07
					C1391.012,590.804,1392.418,589.529,1392.418,587.808L1392.418,587.808z"/>
			</g>
		</g>
		<g>
			<g>
				<path fill="#FFFFFF" d="M1061.019,642.634c3.951,0,3.958-6.14,0-6.14C1057.068,636.494,1057.061,642.634,1061.019,642.634
					L1061.019,642.634z"/>
			</g>
		</g>
		<g>
			<g>
				<path fill="#FFFFFF" d="M955.335,467.568c-0.539,0.539-1.078,1.078-1.617,1.617c-1.137,1.137-1.222,3.22,0,4.342
					c1.226,1.125,3.128,1.214,4.342,0c0.539-0.539,1.078-1.078,1.617-1.617c1.137-1.137,1.222-3.22,0-4.342
					C958.451,466.443,956.548,466.354,955.335,467.568L955.335,467.568z"/>
			</g>
		</g>
		<g>
			<g>
				<path fill="#FFFFFF" d="M975.297,371.243c-0.539,0-1.078,0-1.617,0c-1.606,0-3.144,1.412-3.07,3.07
					c0.075,1.663,1.349,3.07,3.07,3.07c0.539,0,1.078,0,1.617,0c1.606,0,3.144-1.412,3.07-3.07
					C978.293,372.649,977.018,371.243,975.297,371.243L975.297,371.243z"/>
			</g>
		</g>
		<g>
			<g>
				<path fill="#FFFFFF" d="M1200.114,304.601c3.951,0,3.958-6.14,0-6.14C1196.163,298.46,1196.156,304.601,1200.114,304.601
					L1200.114,304.601z"/>
			</g>
		</g>
		<g>
			<g>
				<path fill="#FFFFFF" d="M958.57,181.29c-0.539,0.539-1.078,1.078-1.617,1.617c-1.137,1.137-1.222,3.22,0,4.342
					c1.226,1.125,3.128,1.214,4.342,0c0.539-0.539,1.078-1.078,1.617-1.617c1.137-1.137,1.222-3.22,0-4.342
					C961.686,180.165,959.783,180.077,958.57,181.29L958.57,181.29z"/>
			</g>
		</g>
		<g>
			<g>
				<path fill="#FFFFFF" d="M951.036,93.052c-0.297,0-0.593,0-0.89,0c-3.951,0-3.958,6.14,0,6.14c0.297,0,0.593,0,0.89,0
					C954.987,99.192,954.994,93.052,951.036,93.052c-0.297,0-0.593,0-0.89,0c-3.951,0-3.958,6.14,0,6.14c0.297,0,0.593,0,0.89,0
					C954.987,99.192,954.994,93.052,951.036,93.052L951.036,93.052z"/>
			</g>
		</g>
		<g>
			<g>
				<path fill="#FFFFFF" d="M684.167,120.548c-0.539,0-1.078,0-1.617,0c-1.606,0-3.144,1.412-3.07,3.07
					c0.075,1.663,1.349,3.07,3.07,3.07c0.539,0,1.078,0,1.617,0c1.606,0,3.144-1.412,3.07-3.07
					C687.163,121.954,685.889,120.548,684.167,120.548L684.167,120.548z"/>
			</g>
		</g>
		<g>
			<g>
				<path fill="#FFFFFF" d="M723.149,44.366c0,0.297,0,0.593,0,0.89c0,3.951,6.14,3.958,6.14,0c0-0.297,0-0.593,0-0.89
					C729.29,40.415,723.149,40.408,723.149,44.366c0,0.297,0,0.593,0,0.89c0,3.951,6.14,3.958,6.14,0c0-0.297,0-0.593,0-0.89
					C729.29,40.415,723.149,40.408,723.149,44.366L723.149,44.366z"/>
			</g>
		</g>
		<g>
			<g>
				<path fill="#FFFFFF" d="M682.253,390.501c-0.058-0.533-0.117-1.065-0.175-1.598c-0.092-0.838-0.281-1.553-0.899-2.171
					c-0.532-0.533-1.406-0.934-2.171-0.899c-0.794,0.036-1.618,0.296-2.171,0.899c-0.516,0.562-0.986,1.378-0.899,2.171
					c0.058,0.533,0.117,1.065,0.175,1.598c0.092,0.838,0.281,1.553,0.899,2.171c0.533,0.533,1.406,0.934,2.171,0.899
					c0.794-0.036,1.618-0.296,2.171-0.899C681.87,392.11,682.34,391.294,682.253,390.501L682.253,390.501z"/>
			</g>
		</g>
		<g>
			<g>
				<path fill="#FFFFFF" d="M478.759,37.732c1.078,0,2.157,0,3.235,0c1.606,0,3.144-1.412,3.07-3.07
					c-0.075-1.663-1.349-3.07-3.07-3.07c-1.078,0-2.157,0-3.235,0c-1.606,0-3.144,1.412-3.07,3.07
					C475.763,36.325,477.038,37.732,478.759,37.732L478.759,37.732z"/>
			</g>
		</g>
		<g>
			<g>
				<path fill="#FFFFFF" d="M226.447,91.105c0.539,0,1.078,0,1.617,0c1.606,0,3.144-1.412,3.07-3.07
					c-0.074-1.663-1.349-3.07-3.07-3.07c-0.539,0-1.078,0-1.617,0c-1.606,0-3.144,1.412-3.07,3.07
					C223.451,89.699,224.726,91.105,226.447,91.105L226.447,91.105z"/>
			</g>
		</g>
		<g>
			<g>
				<path fill="#FFFFFF" d="M271.726,274.109c-0.386,0.015,0.539,0.1,0.516,0.095c-0.357-0.088,0.512,0.238,0.475,0.22
					c-0.359-0.18,0.591,0.531,0.374,0.295c-0.205-0.223,0.479,0.667,0.312,0.408c-0.267-0.414,0.257,0.787,0.123,0.296
					c-0.133-0.486,0.034,0.906,0.038,0.27c0-0.016,0.01-0.202,0.009-0.202c0.015,0.003-0.139,0.871-0.061,0.52
					c0.124-0.561-0.29,0.548-0.136,0.287c0.185-0.314-0.348,0.43-0.32,0.4c0.274-0.296-0.595,0.41-0.381,0.285
					c0.246-0.144-0.764,0.288-0.483,0.208c0.236-0.068-0.915,0.067-0.471,0.082c1.607,0.056,3.143-1.452,3.07-3.07
					c-0.077-1.712-1.349-3.01-3.07-3.07c-2.519-0.088-4.301,2.183-4.296,4.562c0.005,2.373,1.779,4.655,4.302,4.557
					c1.603-0.062,3.146-1.368,3.07-3.07C274.724,275.57,273.445,274.043,271.726,274.109L271.726,274.109z"/>
			</g>
		</g>
		<g>
			<g>
				<path fill="#FFFFFF" d="M54.839,434.156c0-0.539,0-1.078,0-1.617c0-1.606-1.412-3.144-3.07-3.07
					c-1.663,0.074-3.07,1.349-3.07,3.07c0,0.539,0,1.078,0,1.617c0,1.606,1.412,3.144,3.07,3.07
					C53.432,437.152,54.839,435.877,54.839,434.156L54.839,434.156z"/>
			</g>
		</g>
		<g>
			<g>
				<path fill="#FFFFFF" d="M162.305,566.228c-0.539-0.539-1.078-1.078-1.617-1.617c-1.137-1.137-3.22-1.222-4.342,0
					c-1.125,1.226-1.214,3.128,0,4.342c0.539,0.539,1.078,1.078,1.617,1.617c1.137,1.137,3.22,1.222,4.342,0
					C163.43,569.345,163.518,567.442,162.305,566.228L162.305,566.228z"/>
			</g>
		</g>
		<g>
			<g>
				<path fill="#FFFFFF" d="M93.06,731.597c0.547-1.074,1.095-2.148,1.642-3.222c0.728-1.43,0.422-3.396-1.101-4.201
					c-1.401-0.74-3.422-0.426-4.201,1.101c-0.547,1.074-1.095,2.148-1.642,3.222c-0.728,1.43-0.422,3.396,1.101,4.201
					C90.26,733.439,92.282,733.125,93.06,731.597L93.06,731.597z"/>
			</g>
		</g>
		<g>
			<g>
				<path fill="#FFFFFF" d="M294.931,868.68c-0.539-0.539-1.078-1.078-1.617-1.617c-1.137-1.137-3.22-1.222-4.342,0
					c-1.125,1.226-1.214,3.128,0,4.342c0.539,0.539,1.078,1.078,1.617,1.617c1.137,1.137,3.22,1.222,4.342,0
					C296.056,871.796,296.144,869.893,294.931,868.68L294.931,868.68z"/>
			</g>
		</g>
		<g>
			<g>
				<path fill="#FFFFFF" d="M517.412,613.686c0-0.539,0-1.078,0-1.617c0-1.606-1.412-3.144-3.07-3.07
					c-1.663,0.075-3.07,1.349-3.07,3.07c0,0.539,0,1.078,0,1.617c0,1.606,1.412,3.144,3.07,3.07
					C516.005,616.682,517.412,615.407,517.412,613.686L517.412,613.686z"/>
			</g>
		</g>
		<g>
			<g>
				<path fill="#FFFFFF" d="M663.141,636.165c3.951,0,3.958-6.14,0-6.14C659.19,630.024,659.184,636.165,663.141,636.165
					L663.141,636.165z"/>
			</g>
		</g>
		<g>
			<g>
				<path fill="#FFFFFF" d="M1230.26,100.777c-1.312,0-2.625,0-3.937,0c-3.951,0-3.958,6.14,0,6.14c1.312,0,2.625,0,3.937,0
					C1234.211,106.917,1234.217,100.777,1230.26,100.777c-1.312,0-2.625,0-3.937,0c-3.951,0-3.958,6.14,0,6.14
					c1.312,0,2.625,0,3.937,0C1234.211,106.917,1234.217,100.777,1230.26,100.777L1230.26,100.777z"/>
			</g>
		</g>
		<g>
			<g>
				<path fill="#FFFFFF" d="M1481.312,65.696c0-2.12,0-4.239,0-6.359c0-3.951-6.14-3.958-6.14,0c0,2.119,0,4.239,0,6.359
					C1475.171,69.647,1481.312,69.653,1481.312,65.696L1481.312,65.696z"/>
			</g>
		</g>
		<g>
			<g>
				<path fill="#FFFFFF" d="M1339.247,189.363c-2.078-0.294-4.156-0.587-6.234-0.881c-1.64-0.232-3.298,0.401-3.777,2.144
					c-0.395,1.438,0.492,3.543,2.144,3.777c2.078,0.293,4.156,0.587,6.234,0.88c1.64,0.232,3.298-0.401,3.777-2.144
					C1341.787,191.701,1340.9,189.596,1339.247,189.363L1339.247,189.363z"/>
			</g>
		</g>
		<g>
			<g>
				<path fill="#FFFFFF" d="M1588.507,74.225c2.12-2.119,4.239-4.239,6.359-6.359c2.798-2.798-1.543-7.141-4.342-4.342
					c-2.12,2.119-4.239,4.239-6.359,6.359C1581.367,72.681,1585.708,77.024,1588.507,74.225L1588.507,74.225z"/>
			</g>
		</g>
	</g>
	<g>
		<g>
			<path fill="#631F3D" d="M2278.681,669.782c17.341-24.772,50.528-75.421,50.528-100.234c0-33.586-27.227-60.814-60.813-60.814
				c-33.587,0-60.814,27.227-60.814,60.814c0,24.813,33.187,75.462,50.528,100.234H2278.681z"/>
			<rect x="2256.966" y="681.962" fill="#631F3D" width="22.065" height="14.359"/>
		</g>
		<g>
			<path fill="#812E52" d="M2091.149,783.952c12.051-17.215,35.115-52.414,35.115-69.658c0-23.341-18.922-42.263-42.263-42.263
				s-42.263,18.922-42.263,42.263c0,17.244,23.064,52.443,35.115,69.658H2091.149z"/>
			<rect x="2076.058" y="792.416" fill="#812E52" width="15.334" height="9.979"/>
		</g>
	</g>
	<g>
		<g>
			<path fill="#812E52" d="M1106.943,737.474c7.239-6.171,16.166-12.765,25.355-10.303c5.082,1.362,12.325,4.019,17.286,10.312
				c0,0,13.422-10,20.73-10.906s15.096,1.054,20.569,5.98c-4.964-2.723-11.137-1.604-16.462,0.32
				c-9.856,3.561-18.779,9.668-25.668,17.566c-3.798-6.463-8.132-13.387-15.177-15.949
				C1124.722,731.277,1115.122,732.8,1106.943,737.474"/>
		</g>
		<g>
			<path fill="#812E52" d="M1156.542,773.586c7.239-6.171,16.166-12.765,25.355-10.303c5.082,1.362,12.325,4.019,17.286,10.312
				c0,0,13.422-10,20.73-10.906s15.096,1.054,20.569,5.98c-4.964-2.723-11.137-1.604-16.462,0.32
				c-9.856,3.561-18.779,9.668-25.668,17.566c-3.798-6.463-8.132-13.387-15.177-15.949
				C1174.321,767.388,1164.721,768.911,1156.542,773.586"/>
		</g>
		<g>
			<path fill="#812E52" d="M1396.636,875.92c3.176-2.707,7.092-5.6,11.123-4.52c2.23,0.597,5.407,1.763,7.583,4.524
				c0,0,5.888-4.387,9.094-4.784c3.206-0.397,6.622,0.463,9.023,2.624c-2.178-1.195-4.886-0.703-7.222,0.141
				c-4.324,1.562-8.239,4.242-11.26,7.706c-1.666-2.835-3.568-5.873-6.658-6.997C1404.436,873.201,1400.224,873.87,1396.636,875.92"
				/>
		</g>
		<g>
			<path fill="#812E52" d="M1014.95,830.86c-3.336-24.556,21.695-26.905,26.655-20.612c0,0,16.318-15.555,33,16.475
				c-18.017-13.079-26.943-11.411-33.831-3.514C1036.976,816.747,1026.961,812.71,1014.95,830.86"/>
		</g>
		<g>
			<path fill="#812E52" d="M1325.427,761.781c-3.336-24.556,21.869-23.255,26.829-16.962c0,0,16.144-19.204,32.826,12.825
				c-18.017-13.079-26.943-11.411-33.831-3.514C1347.453,747.667,1337.439,743.63,1325.427,761.781"/>
		</g>
		<g>
			<path fill="#812E52" d="M1269.557,845.146c-0.409-15.471,15.151-12.957,17.804-8.715c0,0,11.322-10.83,19.511,10.184
				c-10.3-9.339-15.954-8.908-20.765-4.471C1284.187,837.875,1278.242,834.691,1269.557,845.146"/>
		</g>
		<g>
			<path fill="#812E52" d="M953.742,724.463c7.486-1.524,16.322-2.689,21.823,2.612c3.043,2.932,7.1,7.614,8.141,13.965
				c0,0,13.319-1.812,18.807,0.391c5.488,2.203,10.2,6.607,12.132,12.196c-2.43-3.843-7.204-5.455-11.694-6.172
				c-8.311-1.327-16.955-0.503-24.866,2.37c-0.158-6.018-0.513-12.568-4.469-17.107
				C968.646,727.016,961.307,724.356,953.742,724.463"/>
		</g>
		<g>
			<path fill="#812E52" d="M1401.565,805.125c3.481-3.822,7.844-7.987,12.966-7.288c2.833,0.387,6.92,1.324,10.024,4.378
				c0,0,6.553-6.309,10.431-7.297c3.878-0.988,8.211-0.463,11.499,1.818c-2.862-1.129-6.114-0.103-8.854,1.298
				c-5.07,2.594-9.464,6.496-12.638,11.225c-2.49-3.225-5.299-6.662-9.273-7.561
				C1410.728,800.568,1405.656,802.046,1401.565,805.125"/>
		</g>
	</g>
	<g>
		<path fill="#812E52" d="M2304.172,854.436c-86.218,31.25-166.127,113.839-225.007,120.536
			c-58.881,6.696-92.526-78.125-180.847-49.107s-342.768,180.803-485.764,187.5s-584.599-290.178-681.331-312.5
			c-80.531-18.583-314.261,71.521-390.299,102.227l-0.014-0.587c-35.242,13.707-71.025,26.034-107.24,36.943
			c-37.727,11.365-78.787,21.115-115.882,7.849c-45.161-16.151-73.293-62.465-117.064-82.043v531.593H2850v-283.37
			C2850,1113.476,2390.39,823.186,2304.172,854.436z"/>
	</g>
	<g>
		<path fill="#B34070" d="M143.816,953.036c-8.825-0.881-17.531-2.7-26.027-5.739c-45.161-16.151-73.293-62.465-117.064-82.043
			v32.495c43.772,19.578,71.903,65.892,117.064,82.043c8.497,3.039,155.407,13.051,164.232,13.932L143.816,953.036z"/>
	</g>
	<g>
		<path fill="#B34070" d="M1898.318,925.865c-88.321,29.018-342.768,180.803-485.764,187.5
			c-142.38,6.668-580.79-287.617-680.048-312.184c0,0,558.574,396.739,700.954,390.071
			c142.995-6.696,339.449-164.025,419.367-211.52c23.119-13.739,85.745-59.816,85.745-59.816
			C1926.442,919.339,1913.154,920.99,1898.318,925.865z"/>
	</g>
	<g>
		<path fill="#B34070" d="M2304.172,854.436c-81.828,29.659-157.971,105.553-215.85,118.93c0,0,94.248-20.879,167.336-68.141
			c17.9-11.575,57.363-52.755,57.363-52.755C2309.747,852.844,2306.784,853.489,2304.172,854.436z"/>
	</g>
	<g>
		<path fill="#75294A" d="M2493.26,1166.233c-13.86-2.397-28.014,1.286-41.367,5.706
			c-107.211,35.488-203.427,121.207-315.877,110.783c-112.946-10.469-213.233-118.035-322.52-87.663
			c-40.359,11.216-77.384,41.065-118.955,35.92c-14.056-1.74-27.265-7.469-40.938-11.163
			c-68.658-18.549-139.228,15.018-204.174,44.002c-64.945,28.984-142.095,53.789-204.659,19.969
			c-18.812-10.169-36.252-25.595-57.614-26.583c-23.371-1.08-47.428,15.624-68.802,6.109c-10.825-4.819-17.837-15.323-24.018-25.433
			c-22.765-37.234-42.83-76.9-73.603-107.845c-30.773-30.945-75.674-52.23-117.995-41.579c-26.725,6.726-52.38,25.624-79.155,19.102
			c-17.409-4.241-30.366-18.395-42.202-31.847c-32.395-36.82-64.79-73.641-97.185-110.461c-8.488-9.647-17.462-19.641-29.46-24.24
			c-14.506-5.56-30.78-2.251-45.74,1.938c-81.451,22.81-153.92,69.197-230.565,104.975s-163.76,61.334-245.337,38.979
			c-56.064-15.363-91.953-55.426-132.369-97.209L0,1167.303c0,73.096,29.359,127.844,80.445,166.388
			c38.216,28.833,90.739,25.951,138.519,22.976c276.286-17.204,553.261,6.532,830.007,12.982
			c201.798,4.703,403.685,0.21,605.487-4.283c226.455-5.042,452.909-10.084,679.364-15.126
			c43.441-0.967,461.271,11.472,501.406-5.18c40.135-16.652-149.13-73.148-188.875-113.646
			C2624.935,1209.591,2523.391,1171.444,2493.26,1166.233z"/>
	</g>
	<g>
		<path fill="#672140" d="M-2.097,1471.124c24.995-49.224,70.367-84.931,117.633-113.455
			c206.368-124.541,466.963-136.581,699.722-73.962c126.669,34.077,249.827,90.409,345.078,180.596"/>
	</g>
	<g>
		<path fill="#672140" d="M941.68,1328.447c163.311,63.955,346.739,32.617,518.411-3.292s351.576-75.337,519.801-25.727
			c49.433,14.578,96.916,36.687,147.851,44.542c77.853,12.006,156.321-10.156,234.482-19.957
			c80.286-10.068,162.204-7.005,241.514,9.029c69.173,13.985,142.146,42.442,176.856,103.889c3.806,6.738,7.146,14.781,4.388,22.011
			c-3.213,8.427-13.054,11.878-21.749,14.272c-409.967,112.878-841.676,118.869-1266.387,98.019
			c-144.793-7.108-289.938-17.31-432.034-46.018c-37.43-7.562-75.962-17.037-105.858-40.795
			c-29.896-23.757-48.665-65.683-34.475-101.135"/>
	</g>
	<rect y="1396.847" fill="#FA798D" width="2850" height="403.153"/>
	<g opacity="0.75">
		<g opacity="0.75">
			<path fill="#FFFFFF" d="M1240.477,1622.405c-57.635,21.378-117.22,37.496-177.771,48.101
				c-13.122,2.298-16.754,19.296-5.745,26.796c10.588,7.213,23.381,11.91,35.953,14.697c22.69,5.031,46.421,5.552,68.373,13.185
				c9.727,3.382,20.249,9.917,20.975,20.189c-73.898,28.477-154.517,33.339-230.776,54.627l811.849-1.037
				c-3.249-7.204-10.919-13.69-18.333-17.497c-71.925-36.929-165.102-10.26-235.166-50.61
				c40.917-10.985,81.833-21.97,122.749-32.956c9.115-2.447,20.169-7.241,20.269-16.678c0.105-9.999-12.042-14.781-21.845-16.753
				c-66.899-13.462-134.485-23.51-202.406-30.094c43.873-8.384,87.745-16.767,131.617-25.151
				c8.935-1.707,20.437-7.096,18.248-15.925c-1.683-6.791-10.285-8.64-17.248-9.322c-46.847-4.585-93.083-15.376-137.119-32.003
				c16.906-16.098,46.53-15.47,66.739-24.717c9.189-4.204,6.24-18-3.862-18.219c-34.831-0.756-69.661-1.512-104.492-2.268
				c-7.103-0.154-16.738-2.813-15.33-10.408c0.586-3.159,2.975-5.684,6.004-6.753c24.005-8.468,48.01-16.935,72.015-25.403
				c3.764-1.328,6.367-4.984,6.002-8.958c-0.424-4.612-4.372-5.856-7.897-6.807c-15.379-4.146-30.758-8.291-46.138-12.437
				c0.217-6.506,5.898-11.238,10.128-16.186c5.2-6.083,8.177-17.135-2.677-19.577c-1.369-0.308-2.785-0.398-4.187-0.349
				c-24.727,0.861-25.013-0.382-17.485-3.045h-63.843c-2.729,2.695-22.978,2.164-23.554,4.977
				c-1.123,5.487,13.554,14.777,7.873,16.231c-12.287,3.145-27.528,6.387-33.732,9.333c-2.463,1.169-5.066,2.463-6.468,4.802
				c-6.061,10.116,15.784,17.508,15.257,29.289c-0.357,7.984-10.313,11.188-18.228,12.294c-10.805,1.511-21.61,3.021-32.416,4.532
				c-11.888,1.662-27.433,7.39-23.145,20.959c2.607,8.248,11.072,12.94,19.639,11.746c11.24-1.566,33.37,7.255,26.803,20.502
				c-1.301,2.624-3.51,4.703-6.136,6.002c-21.07,10.426-44.086,16.895-67.5,18.992c-11.305,1.012-26.772,5.542-25.036,16.758
				c1.565,10.112,15.364,11.321,25.596,11.256c24.374-0.154,48.745,7.52,68.601,21.667c1.76,1.254,3.082,3.087,3.56,5.195
				C1251.54,1617.299,1245.522,1620.534,1240.477,1622.405z"/>
		</g>
		<g>
			<g opacity="0.75">
				<path fill="#FFFFFF" d="M1477.696,1483.916c-13.467-1.287-27.036-0.339-40.532,0.609c-0.038,0.002-0.077,0.003-0.115,0.005
					c-3.787,0.2-3.757,5.865,0.026,6.124c1.792,0.123,3.593,0.173,5.382,0.206c11.954,0.221,24.129-0.259,35.587-3.468
					c1.891-0.53,1.674-3.281-0.282-3.469C1477.741,1483.92,1477.718,1483.918,1477.696,1483.916z"/>
			</g>
			<g opacity="0.75">
				<path fill="#FFFFFF" d="M1443.144,1424.039c-0.117-0.329-0.507-0.456-0.847-0.536c-7.948-1.868-13.821-1.926-21.671-0.197
					c-3.142,0.604-6.487,1.6-7.259,2.996c-0.155,0.28-0.271,0.639-0.097,0.908c0.158,0.243,0.482,0.302,0.77,0.339
					c8.342,1.063,17.026,2.095,24.991-0.602c1.31-0.443,2.611-1,3.654-1.907C1442.979,1424.782,1443.274,1424.407,1443.144,1424.039
					z"/>
			</g>
			<g opacity="0.75">
				<path fill="#FFFFFF" d="M1625.968,1514.587c-2.831-1.56-6.79-3.785-10.021-3.869c-15.41-0.82-31.009,2.177-45.017,8.651
					c-0.683,0.316-1.468,0.801-1.45,1.553c0.02,0.829,0.979,1.256,1.778,1.477c12.589,3.484,25.744,4.913,38.786,4.212
					c5.983-0.321,12.313-1.242,16.902-5.095c1.004-0.843,1.96-1.951,1.956-3.261
					C1628.896,1516.61,1627.408,1515.381,1625.968,1514.587z"/>
			</g>
			<g opacity="0.75">
				<path fill="#FFFFFF" d="M1700.922,1645.295c-0.254-1.259-1.34-2.163-2.41-2.873c-5.987-3.972-13.365-5.122-20.506-5.91
					c-22.418-2.476-57.245-2.589-79.634,0.137l0.245-0.005c-1.004,0.102-2.008,0.203-3.007,0.342
					c-1.056,0.147-2.171,0.343-2.971,1.049c-1.577,1.392-1.061,4.151,0.49,5.572c1.552,1.421,3.741,1.854,5.814,2.213
					c31.489,5.449,63.672,6.875,95.52,4.233C1697.494,1649.802,1701.524,1648.276,1700.922,1645.295z"/>
			</g>
			<g opacity="0.75">
				<path fill="#FFFFFF" d="M1240.19,1436.713c-1.999-1.991-2.712-2.337-4.412-2.964c-9.599-2.08-19.608-2.252-29.272-0.503
					c-1.859,0.336-3.921,0.894-4.858,2.534c-1.012,1.773-0.181,4.151,1.37,5.48c1.551,1.329,3.628,1.838,5.639,2.197
					c10.035,1.794,20.546,0.848,30.099-2.709c1.083-0.403,2.333-1.082,2.365-2.237
					C1241.14,1437.818,1240.683,1437.203,1240.19,1436.713z"/>
			</g>
			<g opacity="0.75">
				<path fill="#FFFFFF" d="M1125.235,1571.102L1125.235,1571.102c-0.002,0-0.004,0-0.006-0.001
					c-0.112-0.016-0.224-0.031-0.336-0.028c-22.671-1.941-44.499-3.517-66.761,1.231c-1.662,0.354-3.471,0.824-4.457,2.208
					c-1.386,1.945-0.357,4.848,1.558,6.275c1.916,1.427,4.411,1.754,6.787,1.992c19.57,1.959,39.429,1.01,58.723-2.807
					c2.777-0.549,5.92-1.447,7.104-4.018C1128.753,1573.987,1127.028,1571.368,1125.235,1571.102z"/>
			</g>
			<g opacity="0.75">
				<path fill="#FFFFFF" d="M1126.954,1631.024c-0.468-0.707-1.363-0.978-2.192-1.16c-4.54-0.998-7.288-0.405-12.245-0.521
					l0.736,0.031c-5.59-0.272-11.214,0.182-16.688,1.348c-2.226,0.474-4.777,1.387-5.412,3.572c-0.946,3.254,3.072,5.672,6.4,6.313
					c9.336,1.797,19.339-0.154,27.315-5.327C1126.35,1634.319,1127.929,1632.497,1126.954,1631.024z"/>
			</g>
			<g opacity="0.75">
				<path fill="#FFFFFF" d="M962.495,1749.463c-6.975,0.813-14.645,2.009-18.991,7.662c-0.546,0.71-0.941,1.558-0.941,2.454
					c0.001,2.55,2.749,3.459,5.022,3.804c11.879,1.806,24,0.477,35.886-1.284c27.953-4.14,55.553-10.656,82.405-19.456
					c0.572-0.187,1.01-0.653,1.162-1.235l0,0c0.31-1.179-0.636-2.31-1.851-2.207
					C1036.76,1741.606,989.689,1746.293,962.495,1749.463z"/>
			</g>
		</g>
	</g>
	<g>
		
			<line opacity="0.42" fill="none" stroke="#FFFFFF" stroke-width="4" stroke-linecap="round" stroke-miterlimit="10" x1="739.467" y1="1466.876" x2="824.203" y2="1466.876"/>
		
			<line opacity="0.42" fill="none" stroke="#FFFFFF" stroke-width="4" stroke-linecap="round" stroke-miterlimit="10" x1="937.639" y1="1466.876" x2="1258.531" y2="1466.876"/>
		
			<line opacity="0.42" fill="none" stroke="#FFFFFF" stroke-width="4" stroke-linecap="round" stroke-miterlimit="10" x1="1404.255" y1="1466.876" x2="1517.336" y2="1466.876"/>
		
			<line opacity="0.42" fill="none" stroke="#FFFFFF" stroke-width="4" stroke-linecap="round" stroke-miterlimit="10" x1="1686.673" y1="1466.876" x2="1882.895" y2="1466.876"/>
		
			<line opacity="0.42" fill="none" stroke="#FFFFFF" stroke-width="4" stroke-linecap="round" stroke-miterlimit="10" x1="2094.081" y1="1466.876" x2="2217.509" y2="1466.876"/>
		
			<line opacity="0.42" fill="none" stroke="#FFFFFF" stroke-width="4" stroke-linecap="round" stroke-miterlimit="10" x1="2297.672" y1="1466.876" x2="2336.259" y2="1466.876"/>
		
			<line opacity="0.42" fill="none" stroke="#FFFFFF" stroke-width="4" stroke-linecap="round" stroke-miterlimit="10" x1="373.948" y1="1466.876" x2="412.535" y2="1466.876"/>
		
			<line opacity="0.42" fill="none" stroke="#FFFFFF" stroke-width="4" stroke-linecap="round" stroke-miterlimit="10" x1="500.17" y1="1466.876" x2="638.792" y2="1466.876"/>
		
			<line opacity="0.42" fill="none" stroke="#FFFFFF" stroke-width="4" stroke-linecap="round" stroke-miterlimit="10" x1="595.092" y1="1504.745" x2="722.233" y2="1504.745"/>
		
			<line opacity="0.42" fill="none" stroke="#FFFFFF" stroke-width="4" stroke-linecap="round" stroke-miterlimit="10" x1="980.007" y1="1504.745" x2="1009.662" y2="1504.745"/>
		
			<line opacity="0.42" fill="none" stroke="#FFFFFF" stroke-width="4" stroke-linecap="round" stroke-miterlimit="10" x1="1247.619" y1="1504.745" x2="1331.602" y2="1504.745"/>
		
			<line opacity="0.42" fill="none" stroke="#FFFFFF" stroke-width="4" stroke-linecap="round" stroke-miterlimit="10" x1="1071.822" y1="1757.33" x2="1101.476" y2="1757.33"/>
		
			<line opacity="0.42" fill="none" stroke="#FFFFFF" stroke-width="4" stroke-linecap="round" stroke-miterlimit="10" x1="1339.434" y1="1757.33" x2="1423.417" y2="1757.33"/>
		
			<line opacity="0.42" fill="none" stroke="#FFFFFF" stroke-width="4" stroke-linecap="round" stroke-miterlimit="10" x1="1499.541" y1="1504.745" x2="1535.132" y2="1504.745"/>
		
			<line opacity="0.42" fill="none" stroke="#FFFFFF" stroke-width="4" stroke-linecap="round" stroke-miterlimit="10" x1="1837.247" y1="1504.745" x2="1977.914" y2="1504.745"/>
		
			<line opacity="0.42" fill="none" stroke="#FFFFFF" stroke-width="4" stroke-linecap="round" stroke-miterlimit="10" x1="2155.764" y1="1504.745" x2="2190.429" y2="1504.745"/>
		
			<line opacity="0.42" fill="none" stroke="#FFFFFF" stroke-width="4" stroke-linecap="round" stroke-miterlimit="10" x1="710.7" y1="1542.613" x2="739.467" y2="1542.613"/>
		
			<line opacity="0.42" fill="none" stroke="#FFFFFF" stroke-width="4" stroke-linecap="round" stroke-miterlimit="10" x1="796.448" y1="1542.613" x2="890.254" y2="1542.613"/>
		
			<line opacity="0.42" fill="none" stroke="#FFFFFF" stroke-width="4" stroke-linecap="round" stroke-miterlimit="10" x1="1103.266" y1="1542.613" x2="1142.62" y2="1542.613"/>
		
			<line opacity="0.42" fill="none" stroke="#FFFFFF" stroke-width="4" stroke-linecap="round" stroke-miterlimit="10" x1="1458.065" y1="1542.613" x2="1590.89" y2="1542.613"/>
		
			<line opacity="0.42" fill="none" stroke="#FFFFFF" stroke-width="4" stroke-linecap="round" stroke-miterlimit="10" x1="1718.371" y1="1542.613" x2="1745.932" y2="1542.613"/>
		
			<line opacity="0.42" fill="none" stroke="#FFFFFF" stroke-width="4" stroke-linecap="round" stroke-miterlimit="10" x1="1943.729" y1="1542.613" x2="2012.099" y2="1542.613"/>
		
			<line opacity="0.42" fill="none" stroke="#FFFFFF" stroke-width="4" stroke-linecap="round" stroke-miterlimit="10" x1="739.467" y1="1580.482" x2="801.386" y2="1580.482"/>
		
			<line opacity="0.42" fill="none" stroke="#FFFFFF" stroke-width="4" stroke-linecap="round" stroke-miterlimit="10" x1="1576.35" y1="1580.482" x2="1662.25" y2="1580.482"/>
		
			<line opacity="0.42" fill="none" stroke="#FFFFFF" stroke-width="4" stroke-linecap="round" stroke-miterlimit="10" x1="1837.154" y1="1580.482" x2="1872.931" y2="1580.482"/>
		
			<line opacity="0.42" fill="none" stroke="#FFFFFF" stroke-width="4" stroke-linecap="round" stroke-miterlimit="10" x1="1430.291" y1="1580.482" x2="1466.068" y2="1580.482"/>
		
			<line opacity="0.42" fill="none" stroke="#FFFFFF" stroke-width="4" stroke-linecap="round" stroke-miterlimit="10" x1="1054.517" y1="1580.482" x2="1336.079" y2="1580.482"/>
		
			<line opacity="0.42" fill="none" stroke="#FFFFFF" stroke-width="4" stroke-linecap="round" stroke-miterlimit="10" x1="1040.565" y1="1703.103" x2="954.665" y2="1703.103"/>
		
			<line opacity="0.42" fill="none" stroke="#FFFFFF" stroke-width="4" stroke-linecap="round" stroke-miterlimit="10" x1="1186.624" y1="1703.103" x2="1150.847" y2="1703.103"/>
		
			<line opacity="0.42" fill="none" stroke="#FFFFFF" stroke-width="4" stroke-linecap="round" stroke-miterlimit="10" x1="1562.398" y1="1703.103" x2="1280.836" y2="1703.103"/>
		
			<line opacity="0.42" fill="none" stroke="#FFFFFF" stroke-width="4" stroke-linecap="round" stroke-miterlimit="10" x1="869.413" y1="1618.351" x2="1070.146" y2="1618.351"/>
		
			<line opacity="0.42" fill="none" stroke="#FFFFFF" stroke-width="4" stroke-linecap="round" stroke-miterlimit="10" x1="1130.218" y1="1618.351" x2="1197.072" y2="1618.351"/>
		
			<line opacity="0.42" fill="none" stroke="#FFFFFF" stroke-width="4" stroke-linecap="round" stroke-miterlimit="10" x1="1722.857" y1="1618.351" x2="1739.138" y2="1618.351"/>
		
			<line opacity="0.42" fill="none" stroke="#FFFFFF" stroke-width="4" stroke-linecap="round" stroke-miterlimit="10" x1="1293.94" y1="1618.351" x2="1602.418" y2="1618.351"/>
		
			<line opacity="0.42" fill="none" stroke="#FFFFFF" stroke-width="4" stroke-linecap="round" stroke-miterlimit="10" x1="1011.257" y1="1656.22" x2="1336.079" y2="1656.22"/>
		
			<line opacity="0.42" fill="none" stroke="#FFFFFF" stroke-width="4" stroke-linecap="round" stroke-miterlimit="10" x1="1390.237" y1="1656.22" x2="1458.065" y2="1656.22"/>
		
			<line opacity="0.42" fill="none" stroke="#FFFFFF" stroke-width="4" stroke-linecap="round" stroke-miterlimit="10" x1="1579.363" y1="1656.22" x2="1602.418" y2="1656.22"/>
	</g>
	<g>
		<path fill="#531331" d="M960.236,1800c-70.422-54.091-140.844-137.995-211.266-192.086c-7.397-5.682-14.96-11.455-23.764-14.534
			c-8.638-3.021-17.96-3.27-27.107-3.534c-67.46-1.951-134.848-6.401-201.979-13.338c-32.032-3.31-108.396-15.553-108.396-15.553
			c-79.405-128.632-172.596-281.706-252-410.339c-20.285-32.861-41.567-66.771-73.789-88.056
			C43.331,1050.27,21.938,1042.866,0,1038.52V1800H960.236z"/>
	</g>
	<path fill="#531331" d="M2788.065,1062.559c-32.222,21.285-53.504,55.195-73.789,88.056
		c-15.633,25.325-147.47,277.909-147.47,277.909s-433.375,161.835-442.013,164.855c-8.804,3.079-16.367,8.852-23.764,14.534
		c-30.092,23.114-42.148,32.55-71.278,60.974l4.028,131.113h42.278H2850v-761.48
		C2828.062,1042.866,2806.669,1050.27,2788.065,1062.559z"/>
	<g>
		<path fill="#531331" d="M2055.378,1649.409c-4.059-3.626-9.698-5.071-15.14-5.059c-5.442,0.012-10.785,1.345-16.063,2.67
			c8.739-4.302,18.105-7.327,27.71-8.949c-5.968-10.613-17.947-16.071-29.146-20.851c13.109-0.182,26.246,3.629,37.222,10.799
			c-2.038-7.348-5.169-14.391-9.258-20.828c11.22,7.117,20.656,17.021,27.222,28.571"/>
	</g>
	<g>
		<path fill="#531331" d="M2108.769,1608.479c-6.945-0.515-12.819-7.243-12.392-14.194c0.427-6.951,7.081-12.909,14.036-12.57
			c-3.564-8.26-3.732-18.501,1.651-25.709s17.06-9.61,23.685-3.525c1.428-11.991,7.441-23.378,16.537-31.32
			c2.975-2.597,6.342-4.873,10.156-5.899c4.529-1.22,9.389-0.589,13.846,0.874c9.651,3.167,17.927,10.319,22.459,19.409
			s5.264,20.003,1.986,29.617c-1.024,3.002-2.45,5.921-4.615,8.238c-1.978,2.117-4.488,3.649-6.989,5.111
			c-24.679,14.419-51.843,24.571-79.929,29.872"/>
	</g>
	<g>
		<path fill="#531331" d="M788.28,1656.63c-0.252-15.625,24.082-65.327,21.451-77.799c-2.251-10.672-6.236-20.898-8.987-31.453
			c-5.316-20.397-5.951-41.681-6.556-62.751c2.969-0.527,5.938-1.055,8.908-1.582c-4.238,29.434,5.005,60.54,24.629,82.884
			c2.151-11.687,8.54-22.546,17.71-30.104c4.784-3.943,10.25-6.983,15.111-10.83c10.534-8.336,17.975-20.495,20.602-33.669
			c2.544,1.279,5.088,2.557,7.632,3.836c-9.953,14.004-15.137,31.34-27.114,43.659c-4.839,4.977-10.686,9.012-14.799,14.603
			c-6.272,8.525-35.171,81.943-38.464,108.886"/>
	</g>
	<g>
		<path fill="#531331" d="M808.317,1495.962c-10.496,3.956-22.077,4.988-33.107,2.952c-6.124-1.131-12.227-3.277-16.935-7.354
			c-4.708-4.077-7.823-10.333-6.996-16.506c1.359-10.149,12.541-16.33,22.774-16.688c-9.641-1.414-17.329-9.146-21.75-17.829
			c-8.54-16.772-5.76-39.898,9.41-51.039c9.279-6.814,21.405-8.34,32.917-8.229c11.512,0.11,23.096,1.622,34.487-0.043
			c-1.788-6.265,0.135-13.444,4.814-17.978c4.68-4.533,11.916-6.227,18.121-4.24c-0.067-7.47,1.911-14.949,5.662-21.409
			c1.177-2.027,2.607-4.03,4.685-5.114c1.995-1.04,4.339-1.108,6.589-1.094c15.204,0.095,30.387,2.899,44.622,8.241
			c4.712,1.769,9.462,3.91,12.886,7.599c5.763,6.21,6.62,15.775,4.316,23.928c-2.303,8.153-7.288,15.242-12.186,22.155
			c7.367-0.835,15.019,3.697,17.828,10.559s0.528,15.459-5.311,20.028c14.011,8.231,27.697,19.954,30.656,35.932
			c3.498,18.891-10.47,38.21-28.63,44.479c-18.161,6.27-38.797,1.313-54.909-9.153c-16.676,14.22-41.819,17.604-61.661,8.299
			c-3.455-1.62-7.165-4.245-7.263-8.06"/>
	</g>
	<path fill="#3F0021" d="M0,1111.096c0,0,42.955,20.229,54.756,64.059c11.8,43.83,64.48,225.577,64.48,225.577l-46.04,109.565
		l203.449,71.922l39.014,108.677l256.551,3.979L717.264,1800H0V1111.096z"/>
	<g>
		<g>
			<path fill="#3F0021" d="M520.235,1161.923c30.224,4.101,59.192,17.055,82.398,36.849c7.074,6.034,14.206,14.722,11.549,23.632
				c-1.792,6.011-7.47,9.826-12.088,14.071s-8.661,10.816-5.99,16.492c1.264,2.685,3.788,4.525,6.257,6.172
				c24.793,16.542,54.718,26.01,75.325,47.543c7.398,7.73,13.438,19.854,7.337,28.644c-2.328,3.354-6.387,6.341-5.754,10.375
				c0.282,1.798,1.503,3.298,2.785,4.59c7.053,7.103,16.911,10.51,25.41,15.796c8.5,5.286,16.333,14.226,14.845,24.124
				c-0.743,4.94-3.704,9.224-6.636,13.269c-9.639,13.296-19.997,26.295-32.9,36.453s-28.659,17.362-45.079,17.596
				c-25.408,0.362-47.755-15.364-70.94-25.765c-2.435-1.093-5.007-2.151-7.671-1.992c-3.462,0.207-6.429,2.405-9.31,4.337
				c-9.712,6.513-21.532,10.929-33.047,8.887c-11.772-2.088-21.276-10.417-31.605-16.439c-2.53-1.475-5.226-2.849-8.146-3.079
				c-4.695-0.369-9.033,2.235-13.202,4.426c-37.016,19.452-83.093,10.563-120.414-8.298c-11.966-6.047-24.119-13.78-29.638-25.998
				c-6.968-15.425,0.012-35.701,14.998-43.569c4.807-2.524,10.26-3.906,14.537-7.25c4.276-3.344,6.979-9.77,3.899-14.241
				c-2.292-3.326-7.374-5.215-7.242-9.252c0.054-1.643,1.049-3.088,2.043-4.397c26.761-35.258,74.921-44.675,112.955-67.318
				c1.568-0.933,3.255-2.068,3.683-3.842c0.766-3.175-2.755-5.499-5.379-7.444c-11.304-8.377-11.459-26.29-3.851-38.125
				s20.707-18.847,33.55-24.593c12.482-5.585,25.567-10.528,39.229-11.1"/>
		</g>
		<g>
			<path fill="#3F0021" d="M422.926,1415.584c-1.748,16.995,14.31,76.848,17.269,78.751c16.722,10.757,33.444,21.515,50.167,32.272
				l0,0c15.138-5.425,26.714-5.994,42.572-8.658c9.299-1.562,19.418-2.997,26.028-9.722c4.169-4.241,6.313-10.021,8.247-15.644
				c7.989-23.23,14.357-47.017,19.045-71.131l11.409,22.598c-5.174,18.694-10.349,37.387-15.522,56.081
				c-1.846,6.669-3.77,13.503-7.863,19.083c-9.342,12.733-26.782,15.454-42.024,19.588c-4.445,1.206-9.018,2.719-12.287,5.963
				c-2.528,2.507-4.05,5.828-5.496,9.081c-15.701,35.299-36.691,134.852-47.046,172.072l-61.379-6.391
				c16.358-39.085,51.545-134.102,62.234-175.102c0.108-0.414,0.224-0.83,0.338-1.246c-12.069-8.218-24.137-16.436-36.206-24.654
				c-2.403-1.637-4.878-3.346-6.406-5.82c-1.45-2.349-1.905-5.16-2.322-7.889c-4.651-30.337-8.538-60.792-11.655-91.325
				C417.477,1414.536,417.477,1414.536,422.926,1415.584z"/>
		</g>
		<g>
			<path fill="#3F0021" d="M705.906,1691.148c-18.297-8.855-41.544-6.343-57.528,6.217c-1.059-13.596-12.758-25.026-26.112-27.794
				c-13.353-2.768-27.568,2.192-37.914,11.077c2.762-15.064-6.862-30.645-20.447-37.718c-13.584-7.073-30.102-6.697-44.727-2.153
				c-14.626,4.544-27.735,12.896-40.447,21.438c-4.555,3.061-9.609,8.892-6.175,13.173l-4.976-1.662
				c-2.13,30.788,17.771,60.098,44.095,76.205s58.038,20.953,88.889,21.752c29.894,0.775,60.153-1.99,88.521-11.451
				c9.436-3.147,18.808-7.133,26.285-13.693c7.476-6.561,12.874-16.073,12.514-26.013
				C727.42,1707.679,717.477,1696.748,705.906,1691.148z"/>
		</g>
		<g>
			<path fill="#3F0021" d="M314.447,1641.703c10.139-12.226,27.185-19.292,42.48-15.014c11.957,3.344,21.15,12.691,29.602,21.787
				c-1.986-7.795,3.846-16.192,11.519-18.606c7.673-2.414,16.284,0.277,22.545,5.327c6.261,5.05,10.505,12.169,13.934,19.445l0,0
				c11.55,13.183,8.385,27.255,2.967,43.923c-5.417,16.669-19.168,30.171-35.604,36.258c-11.193,4.145-23.408,5.036-35.273,4.447
				c-8.799-0.437-17.534-1.821-26.053-4.067c-10.263-2.706-20.695-6.826-27.954-14.636c-8.411-9.049-11.479-21.927-11.8-34.277
				C300.397,1670.412,304.307,1653.929,314.447,1641.703z"/>
		</g>
		<g>
			<path fill="#531331" d="M742.379,1594.441c9.4-17.774,12.294-38.899,8.022-58.546c8.822,6.235,14.251,16.387,16.883,26.865
				c2.632,10.478,2.751,21.4,2.855,32.203c9.36-8.12,17.16-18.032,22.853-29.038c0.548,17.801-6.442,35.713-18.902,48.437
				c8.284-1.705,16.717-2.686,25.172-2.928c-7.301,5.703-14.603,11.407-21.904,17.11l-50.915-2.713
				c7.192-5.616,10.445-15.256,9.987-24.37c-0.458-9.114-4.192-17.772-8.859-25.613
				C734.763,1579.675,740.257,1586.573,742.379,1594.441z"/>
		</g>
		<g>
			<path fill="#531331" d="M838.066,1673.326c9.489-10.195,22.651-16.896,36.477-18.572c-6.087-4.353-13.964-5.594-21.418-4.931
				c-7.454,0.663-14.627,3.071-21.718,5.461c3.182-7.971,7.891-15.33,13.797-21.559c-11.771,3.693-21.898,12.342-27.387,23.39
				c-0.77-5.808-2.047-11.548-3.813-17.134c-2.07,6.075-4.139,12.15-6.209,18.224l13.362,32.692
				c2.037-5.984,7.604-10.305,13.67-12.08c6.067-1.775,12.581-1.302,18.773-0.033
				C849.459,1674.948,843.696,1672.924,838.066,1673.326z"/>
		</g>
	</g>
	<g>
		<g>
			<path fill="#531331" d="M205.408,966.84c-1.549-2.057-3.606-3.756-4.761-6.058c-1.155-2.301-1.009-5.604,1.218-6.896
				c1.657-0.961,4.219-0.739,4.982-2.497c0.31-0.715,0.177-1.537,0.017-2.3c-1.843-8.768-6.315-16.307-11.743-23.426
				c1.879-2.449,3.214-5.288,3.658-8.332c1.271-8.721-6.095-17.706-14.895-18.172c4.27-3.685,6-9.703,5.57-15.326
				c-0.429-5.624-2.759-10.93-5.494-15.862c-2.676-4.827-5.808-9.464-9.845-13.227c-7.238-6.749-17.049-10.305-26.899-11.259
				c-8.764-0.849-17.599,0.235-26.22,2.104c-5.124,0.81-10.193,2.006-15.155,3.522c-5.329,1.628-10.671,3.684-14.888,7.326
				c-4.217,3.642-7.166,9.15-6.493,14.681c-8.378-3.865-18.691-0.6-25.49,5.637c-4.372,4.011-7.767,9.48-7.897,15.411
				c-0.028,1.27,0.103,2.525,0.358,3.753c-3.776,0.773-7.774,0.508-11.64,0.952c-4.716,0.542-9.888,2.784-11.259,7.329
				c-0.684,2.268-0.284,4.706,0.153,7.035c1.434,7.655,3.237,15.33,6.707,22.302c3.47,6.973,8.763,13.258,15.755,16.69
				c10.819,5.31,23.589,3.103,35.639,3.349c1.266,0.026,2.583,0.094,3.693,0.703c1.442,0.791,2.268,2.336,3.111,3.748
				c2.842,4.763,7.013,9.054,12.363,10.515c5.47,1.493,11.234-0.148,16.884-0.634c1.384-0.119,2.819-0.161,4.117,0.333
				c2.088,0.794,3.419,2.791,4.761,4.576c11.921,15.849,33.477,21.388,53.303,20.875c6.357-0.164,13.135-1.013,17.98-5.131
				C209.113,983.362,210.235,973.254,205.408,966.84z"/>
		</g>
		<g>
			<path fill="#531331" d="M98.8,1032.113c0.073-0.189,30.086-60.764,30.086-60.764c0.405-5.839,0.517-13.262,0.272-20.984
				c-8.183,13.564-16.116,27.42-26.468,39.312c0.963-27.139,5.508-53.7,10.548-80.182c-7.916,9.153-19.207,40.893-34.832,113.454
				c-3.857,17.912-17.869,55.06-24.189,72.258l26.91-5.511C85.652,1070.118,91.563,1050.859,98.8,1032.113z"/>
		</g>
		<g>
			<path fill="#531331" d="M96.672,1094.826c4.648-9.372,12.688-17.015,22.282-21.183c-5.314-1.83-11.251-1.036-16.475,1.037
				c-5.224,2.073-9.872,5.343-14.465,8.583c0.584-6.42,2.398-12.727,5.315-18.476c-7.683,5.18-13.121,13.575-14.707,22.704
				c-1.798-4.016-3.947-7.875-6.415-11.519c-0.189,4.817-0.378,9.633-0.567,14.45l16.622,20.674
				c0.185-4.744,3.267-9.047,7.254-11.624c3.987-2.577,8.778-3.632,13.508-4.045C105.222,1093.553,100.639,1093.33,96.672,1094.826z
				"/>
		</g>
	</g>
	<g>
		<g>
			<path fill="#531331" d="M2145.476,1420.962c-7.277-9.023-19.037-14.237-30.61-13.57c4.577-3.256,8.807-7,12.595-11.147
				c1.288-1.411,2.584-3.001,2.756-4.904c0.255-2.834-2.021-5.206-4.2-7.037c-18.795-15.794-44.156-23.514-68.563-20.869
				c1.677-4.632-0.225-10.229-4.2-13.071c-2.009-5.452-6.157-10.374-11.145-13.475c-8.77-5.453-19.446-6.636-29.72-7.687
				c-3.744-0.383-7.583-0.76-11.227,0.188c-4.078,1.06-7.552,3.685-10.781,6.392c-7.442,6.237-14.241,13.24-20.257,20.862
				c-2.667,3.379-5.236,6.996-6.257,11.178c-1.021,4.182-0.178,9.073,3.098,11.864c2.906,2.475,7.995,4.549,6.778,8.167
				c-0.348,1.034-1.199,1.805-2.016,2.527c-10.56,9.329-21.12,18.659-31.68,27.988c-5.272,4.658-10.815,9.747-12.505,16.576
				c-1.691,6.829,2.651,15.542,9.686,15.541c-6.671,1.295-13.081,3.917-18.748,7.667c-1.749,1.157-3.479,2.478-4.495,4.312
				c-1.015,1.831-1.219,3.998-1.214,6.092c0.033,15.355,10.677,29.559,24.593,36.049c13.916,6.49,30.425,5.946,44.908,0.844
				c14.482-5.102,27.144-14.424,38.308-24.966c0.948-0.895,1.993-1.85,3.291-1.968c1.772-0.161,3.231,1.261,4.594,2.405
				c5.892,4.947,14.781,5.981,21.651,2.518c6.871-3.463,11.327-11.223,10.855-18.902c12.728,6.913,28.039,8.423,42.204,5.406
				c14.166-3.017,27.205-10.357,38.082-19.922c4.377-3.849,8.653-8.498,9.401-14.278
				C2151.344,1430.422,2148.846,1425.14,2145.476,1420.962z"/>
		</g>
		<g>
			<path fill="#531331" d="M2073.173,1558.131c-1.812-3.388-3.849-6.719-4.813-10.437c-1.052-4.061-0.76-8.334-0.453-12.518
				c1.821-24.83,3.882-49.642,6.184-74.432l-12.948-5.615c-3.372,22.488-6.743,44.976-10.115,67.464
				c-0.526-0.188-1.115-0.236-1.681-0.267c-12.311-0.668-24.605-1.636-36.869-2.902c-1.369-0.141-2.807-0.312-3.923-1.116
				c-1.209-0.871-1.826-2.327-2.385-3.708c-4.636-11.447-9.272-22.894-13.908-34.341l-4.462,0.2
				c3.692,16.465,7.977,32.798,12.844,48.955c0.228,0.756,0.469,1.535,0.973,2.142c1.224,1.476,3.456,1.433,5.369,1.3
				c14.075-0.979,28.281,0.024,42.087,2.932c-0.24,1.871-0.387,3.751-0.189,5.622c0.257,2.429,1.079,4.757,1.894,7.059
				c9.448,26.67,18.896,53.34,28.344,80.01c7.27-0.803,14.343-3.336,20.471-7.33c-6.091-14.951-12.181-29.901-18.272-44.852
				C2078.816,1570.148,2076.305,1563.986,2073.173,1558.131z"/>
		</g>
	</g>
	<g>
		<g>
			<path fill="#3F0021" d="M2471.702,1125.257c-21.585-18.817-50.571-27.737-79.205-27.979c5.177-8.635,4.941-20.226-0.585-28.643
				c-5.526-8.417-16.067-13.242-26.049-11.925c15.587-11.213,16.809-35.574,6.675-51.883
				c-10.134-16.309-28.488-25.714-46.874-31.249c-22.754-6.851-48.953-8.494-68.896,4.429
				c-26.903,17.432-32.72,53.646-36.013,85.533c-18.951-4.966-40.763-2.463-55.463,10.489
				c-14.699,12.952-19.363,37.463-7.133,52.768c-48.413-2.595-99.99,25.52-114.331,71.833c-5.579,18.016-4.943,39.022,6.362,54.119
				c9.1,12.152,23.973,18.969,38.979,21.261c15.007,2.292,57.748-0.926,72.772-3.107c0,0,24.167,44.823,112.734,35.966
				c71.958-7.196,83.951-32.368,83.951-32.368s69.106,20.078,104.339-9.594C2479.144,1251.281,2539.721,1184.553,2471.702,1125.257z
				"/>
		</g>
		<g>
			<path fill="#3F0021" d="M2390.881,1250.936c-5.121,37.423-10.242,74.846-15.363,112.268c-1.534,11.207-3.163,22.71-8.669,32.591
				c-5.262,9.444-13.659,16.672-21.882,23.691c-17.271,14.742-34.541,29.484-51.812,44.226
				c-9.642-69.187-8.379-139.897,4.26-208.605l-17.586,19.78c-4.109,31.351-8.219,62.702-12.328,94.054
				c-0.844,6.437-1.677,12.884-2.433,19.339c-1.261-1.549-3.581-2.159-5.636-2.602c-14.554-3.137-28.511-9.027-40.913-17.265
				c-2.142-1.423-4.32-3.009-5.473-5.307c-1.076-2.145-1.122-4.641-1.146-7.04c-0.368-36.691-0.737-73.382-1.105-110.073
				l-27.183-21.184c5.532,48.864,7.943,98.081,7.212,147.252c-0.049,3.299-0.077,6.752,1.429,9.687
				c1.627,3.169,4.781,5.222,7.84,7.046c19.174,11.435,40.208,19.743,62.02,24.497c0.354-1.938,0.707-3.877,1.06-5.815
				c-0.649,8.524-1.005,17.062-0.837,25.613c0.495,25.221,5.418,50.112,9.535,75c7.582,45.833,12.476,92.112,14.645,138.518
				c19.744-0.528,39.487-1.056,59.23-1.583c-21.567-47.203-37.296-97.014-47.066-147.976c22.794-22.144,45.587-44.287,68.381-66.43
				c5.518-5.36,11.154-10.884,14.411-17.852c2.886-6.173,3.714-13.077,4.503-19.845c6.189-53.031,12.378-106.062,18.568-159.093
				L2390.881,1250.936z"/>
		</g>
	</g>
	<path fill="#3F0021" d="M2676.351,1359.184l-1.663,77.952l-234.138,135.541v61.046l-734.801,62.897c0,0-12.774,1.992-33.727,16.406
		L1545.595,1800h173.823h170.346h144.015H2850v-592.946L2676.351,1359.184z"/>
	<g>
		<path fill="#3F0021" d="M1724.846,1694.761c-1.94-8.72-5.179-17.15-9.577-24.925c9.043,4.838,17.044,11.613,23.306,19.736
			c-0.487-20.975-10.706-40.443-14.42-61.092c8.922,7.772,14.868,18.5,18.665,29.706c3.797,11.206,5.592,22.975,7.37,34.673
			c0.97-13.004,2.045-26.399,7.939-38.031c0.406,11.204,1.444,22.384,3.11,33.471c1.153-8.717,5.172-17.03,11.287-23.349
			c-1.767,12.63-2.519,25.402-2.248,38.153"/>
	</g>
	<g>
		<g>
			<path fill="#3F0021" d="M1826.137,1661.24c-3.857-1.168-7.714-2.336-11.571-3.504c-0.907-0.275-1.857-0.575-2.51-1.261
				c-0.518-0.545-0.79-1.272-1.048-1.978c-1.435-3.919-2.871-7.837-4.306-11.756c3.185-0.52,6.273-1.632,9.059-3.262
				c-3.58-1.286-8.625-1.816-12.205-3.101c0,0-24.303-30.502-36.232-42.325c9.071,1.189,18.021,3.293,26.672,6.269
				c2.709,0.932,12.789,4.214,12.789,4.214s-2.262,5.155-3.604,7.686c2.178-1.101,4.356-2.202,6.534-3.303
				c0.701-0.354,2.405-1.314,2.405-1.314s1.628,1.448,2.337,2.147c8.424,8.316,14.486,18.672,20.447,28.899
				c1.601,2.745,3.25,6.004,2.063,8.952c1.753,0.509,3.66,0.472,5.392-0.104c3.07,9.644,4.614,19.771,4.558,29.892
				c-5.302-7.198-12.583-12.923-20.827-16.38"/>
		</g>
		<g>
			<g>
				<path fill="#3F0021" d="M1838.284,1664.019c6.6,12.446,11.071,25.705,13.432,39.588c0.452,2.658,4.498,1.531,4.048-1.116
					c-2.421-14.234-7.093-27.839-13.855-40.591C1840.643,1659.512,1837.017,1661.631,1838.284,1664.019L1838.284,1664.019z"/>
			</g>
		</g>
		<g>
			<path fill="#3F0021" d="M1843.789,1574.61c-2.637,3.8-5.206,14.022-6.213,18.537c1.562,1.2,3.022,2.532,4.359,3.978
				c-1.994,0.594-4.104,0.796-6.175,0.591c-0.24,4.63-0.48,9.26-0.72,13.891c-0.119,2.301-0.014,8.946-0.014,8.946
				s3.258,1.991,5.56,2.062c-1.513,0.755-3.025,1.509-4.538,2.264c2.562,10.978,6.773,21.569,12.447,31.31
				c4.376-6.866,8.469-22.717,8.469-22.717l1.681-7.038l-4.905-4.187h5.803C1863.14,1606.359,1856.708,1584.535,1843.789,1574.61"/>
		</g>
		<g>
			<g>
				<path fill="#3F0021" d="M1847.533,1614.039c-1.094,14.3-2.616,28.664-2.358,43.022c0.246,13.679,2.344,27.25,5.999,40.424
					c0.721,2.6,4.773,1.496,4.048-1.116c-3.737-13.471-5.776-27.291-5.872-41.28c-0.095-13.701,1.337-27.403,2.381-41.051
					C1851.937,1611.345,1847.738,1611.358,1847.533,1614.039L1847.533,1614.039z"/>
			</g>
		</g>
		<g>
			<g>
				<path fill="#3F0021" d="M1854.591,1696.107c5.758-28.11,19.574-58.305,43.318-75.643c2.16-1.577,0.068-5.222-2.119-3.625
					c-24.671,18.015-39.248,48.861-45.248,78.152C1850.002,1697.628,1854.048,1698.756,1854.591,1696.107L1854.591,1696.107z"/>
			</g>
		</g>
		<g>
			<path fill="#3F0021" d="M1903.633,1634.375c5.777-8.273,10.859-17.102,15.842-25.822c-6.133-0.623-12.266,0.208-18.151,2.02
				c-0.708,1.785-1.522,3.57-0.63,5.355c-0.801-1.601-1.154-3.194-1.825-4.533c-4.949,1.77-9.694,4.202-14.076,7.015
				c-4.832,3.101-9.372,6.699-13.032,11.048c-0.879,1.045-1.691,2.14-2.461,3.263c0.933,1.866,2.473,3.732,3.406,5.599
				c-1.942,0-3.884-0.679-5.825-1.559c-0.902,1.701-1.717,3.445-2.368,5.249c-2.867,7.953-5.688,20.044-5.389,28.452l0.704,1.678
				c7.32-4.069,14.674-8.159,21.271-13.256c0.25-0.193,0.487-0.4,0.734-0.596c-0.727-1.457-1.667-2.704-0.731-4.575
				c0,2.146,1.462,2.464,2.892,2.823c6.436-5.437,11.971-11.724,16.969-18.461c-2.099-0.887-3.472-3.954-5.867-3.954
				C1897.942,1634.12,1900.787,1633.482,1903.633,1634.375z"/>
		</g>
	</g>
	<g>
		<path fill="#672140" d="M282.02,1284.388c3.349-7.279,6.697-14.558,10.046-21.837c0.497-1.081,1.51-2.373,2.587-1.868
			c0.489,0.229,0.745,0.763,0.963,1.258c2.62,5.934,5.239,11.867,7.859,17.801c9.953-21.245,20.879-42.035,32.732-62.282
			c7.19,16.798,12.837,34.255,16.847,52.082c2.518-5.194,5.037-10.387,7.555-15.581c0.301-0.621,0.627-1.271,1.201-1.655
			c2.011-1.344,4.147,1.538,4.867,3.847c1.025,3.285,2.05,6.569,3.075,9.854c3.046-6.608,6.092-13.217,9.138-19.825
			c2.846,5.708,4.666,11.926,5.346,18.267"/>
	</g>
	<g>
		<path fill="#672140" d="M626.394,1252.516c1.633-4.913,4.485-9.415,8.227-12.992c2.103,6.757,4.207,13.513,6.31,20.27
			c10.736-18.781,22.958-36.712,36.512-53.572c4.51,12.366,7.871,25.15,10.025,38.135c1.79-4.055,4.37-7.759,7.551-10.845
			c1.098,4.875,2.196,9.75,3.293,14.625c3.849-3.206,7.698-6.412,11.547-9.619c3.386,11.433,5.51,23.24,6.323,35.136
			c5.175-7.136,10.35-14.272,15.525-21.409c3.271,4.498,5.12,10.015,5.221,15.576c3.54-2.843,7.079-5.686,10.619-8.529
			c2.818,6.746,4.806,13.838,5.906,21.065"/>
	</g>
	<g>
		<path fill="#672140" d="M905.544,1312.947c2.202-7.756,5.193-15.288,8.911-22.442c0.525,8.947,2.151,17.828,4.829,26.381
			c1.762-4.772,4.119-9.324,7-13.517c4.38,6.528-1.477,17.482,4.721,22.319c4.909-16.495,11.2-32.578,18.785-48.026
			c0.883-1.799,2.825-3.904,4.475-2.766c4.036,22.591,6.858,45.399,8.449,68.293c4.037-8.667,8.075-17.335,12.112-26.002
			c2.097,8.934,3.617,18.004,4.545,27.133c3.255-4.885,6.51-9.769,9.765-14.654c1.598,7.009,2.16,14.253,1.661,21.424"/>
	</g>
	<g>
		<g>
			<path fill="#672140" d="M1497.291,1320.684l16.815-3.483c-3.094-9.412-6.768-18.633-11.011-27.586
				C1500.353,1299.798,1498.41,1310.197,1497.291,1320.684z"/>
		</g>
		<g>
			<path fill="#672140" d="M1514.674,1318.925c0.213-0.657,0.418-1.316,0.63-1.973l-1.198,0.248
				C1514.295,1317.775,1514.489,1318.349,1514.674,1318.925z"/>
		</g>
		<g>
			<path fill="#672140" d="M1569.418,1305.741l15.74-3.261c-1.44-8.011-3.783-15.86-6.969-23.351
				c-3.032,8.486-6.064,16.971-9.096,25.457c-4.155-14.992-9.382-29.687-15.649-43.926c-2.271,8.859-4.366,17.762-6.309,26.698
				c-3.562-11.791-7.643-23.425-12.229-34.856c-6.157,21.595-12.698,43.081-19.602,64.449l31.57-6.54l21.124-3.729
				c0.062,0.15,0.123,0.3,0.185,0.45c0.061-0.172,0.123-0.344,0.184-0.515l1.235-0.218
				C1569.543,1306.18,1569.478,1305.961,1569.418,1305.741z"/>
		</g>
	</g>
	<g>
		<g>
			<path fill="#672140" d="M1672.606,1265.626c-0.309-4.815-0.574-10.277-4.256-13.395c-2.504,6.534-4.865,13.122-7.096,19.753
				c-1.329-9.679-2.266-19.412-2.777-29.168c-0.293-5.584-0.545-11.484-3.582-16.179c-2.701,13.254-5.403,26.508-8.104,39.762
				c-1.897-6.308-4.423-12.351-8.423-17.542c-5.258,16.302-10.517,32.604-15.775,48.906l55.145-5.661
				C1674.912,1283.542,1673.184,1274.621,1672.606,1265.626z"/>
		</g>
		<g>
			<path fill="#672140" d="M1715.997,1261.869c-0.165-1.558-1.097-3.65-2.576-3.134c-0.757,0.264-1.095,1.125-1.342,1.889
				c-3.046,9.432-6.093,18.865-9.139,28.297c-3.185-11.806-6.371-23.611-9.556-35.417c-3.946,12.824-7.891,25.648-11.837,38.472
				l37.149-4.613C1717.796,1278.865,1716.896,1270.367,1715.997,1261.869z"/>
		</g>
	</g>
	<g>
		<g>
			<path fill="#672140" d="M1825.325,1285.672c0.347-1.262,0.71-2.519,1.076-3.776l-1.62-0.09
				C1824.947,1283.096,1825.116,1284.386,1825.325,1285.672z"/>
		</g>
		<g>
			<path fill="#672140" d="M1821.703,1204.168c-8.317,25.362-16.634,50.723-24.95,76.085l28.028,1.554
				C1821.449,1256.137,1825.872,1229.759,1821.703,1204.168z"/>
		</g>
		<g>
			<path fill="#672140" d="M1849.152,1255.448c-3.736,7.287-6.791,14.924-9.112,22.777c-1.62-9.822-2.153-19.823-1.587-29.761
				c-4.723,10.873-8.746,22.048-12.053,33.432l25.534,1.416C1852.088,1273.958,1851.153,1264.587,1849.152,1255.448z"/>
		</g>
		<g>
			<path fill="#672140" d="M1795.751,1251.638c-0.231-7.786-0.529-15.85-3.987-22.83c-6.211,14.374-12.422,28.747-18.633,43.121
				c-1.036-5.077-2.072-10.153-3.109-15.23c-4.007,7.321-6.903,15.25-8.558,23.431l7.9,0.516c-0.175,0.404-0.349,0.809-0.524,1.213
				l26.148,0.566c0.279,0.171,0.579,0.314,0.925,0.383c0.039-0.12,0.079-0.24,0.118-0.36l0.635,0.014
				c-0.018-0.596-0.035-1.191-0.053-1.787c0.046-0.141,0.092-0.281,0.138-0.422l-0.151-0.008
				C1796.318,1270.709,1796.034,1261.174,1795.751,1251.638z"/>
		</g>
	</g>
	<g opacity="0.11">
		<g>
			<path fill="#FFFFFF" d="M642.344,589.83c-20.96-18.894-55.508-20.38-78.013-3.355c11.931-32.422-3.462-70.679-30.764-91.848
				c-27.302-21.169-63.884-27.295-98.285-24.121c-74.437,6.868-143.329,56.882-172.915,125.53
				c-20.809-19.256-53.495-24.414-79.222-12.5c-25.727,11.914-42.936,40.177-41.711,68.502l512.314,15.039
				C668.354,642.934,663.304,608.724,642.344,589.83z"/>
		</g>
		<g>
			<path fill="#FFFFFF" d="M2073.763,561.487c-19.895-11.098-47.225-6.48-62.37,10.538c3.773-57.847-48.954-110.829-106.819-114.321
				c-57.865-3.492-113.47,36.978-135.319,90.674c-33.831-26.523-91.468-11.023-107.433,28.891
				c-10.972-18.167-38.062-20.801-56.608-10.483s-29.999,29.81-38.509,49.253l530.858,4.053
				C2104.088,598.265,2093.659,572.585,2073.763,561.487z"/>
		</g>
		<g>
			<path fill="#FFFFFF" d="M1889.243,236.051c-17.031-10.021-40.17-8.384-55.62,3.935c-3.713-49.583-51.873-91.448-101.49-88.224
				c-48.646,3.16-86.568,41.661-119.464,77.636c-13.891-22.754-43.852-32.13-70.079-27.343
				c-26.226,4.787-48.937,21.351-67.331,40.648c-8.153-12.141-27.052-12.355-39.305-4.371
				c-12.253,7.984-19.449,21.581-26.129,34.591l502.989,13.661C1916.079,267.095,1906.273,246.073,1889.243,236.051z"/>
		</g>
		<g>
			<path fill="#FFFFFF" d="M2540.587,352.627c-13.082-3.248-27.083,1.928-37.661,10.283c7.79-23.822-7.246-51.192-29.824-62.072
				c-22.578-10.88-50.093-7.431-72.47,3.856c-22.377,11.288-40.416,29.552-56.734,48.575c-3.906-16.947-25.848-24.184-42.374-18.767
				c-16.526,5.417-28.604,19.318-39.813,32.615l299.709,15.474C2564.405,369.447,2553.668,355.875,2540.587,352.627z"/>
		</g>
		<g>
			<path fill="#FFFFFF" d="M2695.093,724.839c-2.162-7.368-9.385-13.863-16.925-12.411c-5.677,1.093-11.103,6.31-16.4,3.994
				c-0.036-19.817-2.022-43.258-19.061-53.378c-16.548-9.828-38.212-0.858-52.486,12.052c-12.451,11.261-22.215,25.474-28.26,41.137
				c-10.855-9.642-31.406-1.891-33.19,12.517l165.345,18.857C2695.69,740.091,2697.254,732.207,2695.093,724.839z"/>
		</g>
		<g>
			<path fill="#FFFFFF" d="M732.025,230.986c-18.294-6.876-41.247,4.999-46.203,23.904c-4.871-39.41-13.936-85.059-49.47-102.784
				c-29.271-14.601-65.896-2.889-90.695,18.441c-24.799,21.33-40.95,50.677-59.074,77.906c-1.378,2.071-2.961,4.276-5.35,4.97
				c-5.487,1.593-9.167-5.232-13.149-9.329c-8.634-8.886-24.686-5.158-32.718,4.276c-8.032,9.434-10.191,22.378-12.046,34.629
				l327.724-3.594C759.767,261.916,750.318,237.862,732.025,230.986z"/>
		</g>
	</g>
</g>
</svg>
